<svg width="100" height="100" viewBox="0 0 100 100" fill="none" xmlns="http://www.w3.org/2000/svg">
<path fill-rule="evenodd" clip-rule="evenodd" d="M50 3.98669C23.9477 3.98669 2.82187 25.1078 2.82187 51.1648C2.82187 72.0101 16.3398 89.6937 35.0852 95.9328C37.4422 96.3703 38.3078 94.9094 38.3078 93.6633C38.3078 92.5383 38.2641 88.8219 38.2437 84.8797C25.1187 87.7336 22.3492 79.3133 22.3492 79.3133C20.2031 73.8601 17.1109 72.4101 17.1109 72.4101C12.8297 69.482 17.4336 69.5429 17.4336 69.5429C22.1703 69.875 24.6656 74.4047 24.6656 74.4047C28.8734 81.6156 35.7023 79.5312 38.3945 78.3265C38.818 75.2773 40.0406 73.1953 41.3898 72.0172C30.9109 70.8258 19.8945 66.7797 19.8945 48.7023C19.8945 43.5515 21.7383 39.3429 24.7562 36.0383C24.2656 34.8508 22.6508 30.0523 25.2125 23.5539C25.2125 23.5539 29.1734 22.2859 38.1891 28.3898C41.9531 27.3437 45.9898 26.8179 50 26.8C54.0078 26.8179 58.0469 27.3422 61.818 28.3883C70.8226 22.2844 74.7789 23.5523 74.7789 23.5523C77.3469 30.05 75.732 34.8492 75.2422 36.0367C78.2672 39.3414 80.0976 43.55 80.0976 48.7008C80.0976 66.8211 69.0609 70.8101 58.5555 71.9789C60.2484 73.4429 61.7562 76.3148 61.7562 80.7156C61.7562 87.0281 61.7016 92.1086 61.7016 93.6625C61.7016 94.9179 62.5516 96.389 64.9422 95.9258C83.6766 89.6805 97.1789 72.0023 97.1789 51.1648C97.1781 25.1093 76.0547 3.98669 50 3.98669Z" fill="#181616"/>
<path d="M20.6906 71.7234C20.5867 71.9578 20.218 72.0281 19.882 71.868C19.5383 71.7148 19.3469 71.3953 19.4578 71.1601C19.5594 70.918 19.9289 70.8516 20.2703 71.0133C20.6141 71.1672 20.8094 71.4898 20.6898 71.7242L20.6906 71.7234ZM22.6016 73.8555C22.3773 74.0641 21.9375 73.9672 21.6391 73.6367C21.3297 73.3086 21.2719 72.8687 21.5008 72.657C21.7336 72.4492 22.1602 72.5476 22.4695 72.8758C22.7773 73.2086 22.8383 73.6445 22.6023 73.8562L22.6016 73.8555ZM24.4625 76.5719C24.1734 76.7734 23.7 76.5851 23.4078 76.1656C23.1187 75.7453 23.1187 75.2414 23.4156 75.0406C23.707 74.8391 24.1734 75.0211 24.4703 75.4367C24.7578 75.8625 24.7578 76.3672 24.4625 76.5719ZM27.0102 79.1976C26.7523 79.4828 26.2008 79.4062 25.7977 79.018C25.3859 78.6375 25.2711 78.0961 25.5297 77.8117C25.7922 77.5258 26.3461 77.6055 26.7516 77.9914C27.1633 78.3711 27.2875 78.9133 27.0117 79.1969L27.0102 79.1976ZM30.5258 80.7219C30.4109 81.0914 29.8812 81.2594 29.3461 81.1016C28.8125 80.9398 28.4633 80.5078 28.5727 80.1344C28.682 79.7617 29.2156 79.5875 29.7539 79.7555C30.2875 79.9164 30.6367 80.3461 30.5258 80.7219ZM34.3875 81.0039C34.4008 81.393 33.9477 81.7148 33.3875 81.7226C32.8227 81.7359 32.3656 81.4203 32.3602 81.0375C32.3602 80.6445 32.8039 80.3266 33.368 80.3156C33.9281 80.3055 34.3883 80.618 34.3883 81.0031L34.3875 81.0039ZM37.9797 80.393C38.0469 80.7719 37.657 81.1617 37.1 81.2656C36.5531 81.3672 36.0453 81.1312 35.975 80.7555C35.9078 80.3664 36.3047 79.9766 36.8516 79.8758C37.4094 79.7797 37.9094 80.0078 37.9797 80.393Z" fill="#181616"/>
</svg>
