<svg width="100" height="100" viewBox="0 0 100 100" fill="none" xmlns="http://www.w3.org/2000/svg">
<path d="M14.8727 88.9656L7.05627 1.29767H92.9438L85.1188 88.9524L49.9477 98.7024L14.8727 88.9656Z" fill="#E44D26"/>
<path d="M50 91.25L78.4203 83.3703L85.107 8.46564H50V91.25Z" fill="#F16529"/>
<path d="M50 40.9805H35.7719L34.789 29.9695H50V19.218H23.0383L23.2961 22.1023L25.9383 51.7328H50V40.9805ZM50 68.9047L49.9523 68.918L37.9781 65.6836L37.2133 57.1094H26.4187L27.925 73.9914L49.9508 80.1055L50 80.0922V68.9047Z" fill="#EBEBEB"/>
<path d="M49.9625 40.9805V51.7328H63.2024L61.9547 65.6773L49.9625 68.9141V80.1008L72.0055 73.9914L72.1672 72.175L74.6938 43.868L74.9555 40.9805H72.0586H49.9625ZM49.9625 19.218V29.9695H75.9344L76.15 27.5539L76.6406 22.1023L76.8977 19.218H49.9625Z" fill="white"/>
</svg>
