<svg width="100" height="100" viewBox="0 0 100 100" fill="none" xmlns="http://www.w3.org/2000/svg">
<path d="M37.2008 76.6562C37.2008 76.6562 33.4765 78.8234 39.8547 79.5547C47.5828 80.4375 51.532 80.3109 60.0461 78.7016C60.0461 78.7016 62.2891 80.1039 65.4156 81.3195C46.3226 89.4992 22.2062 80.8453 37.2008 76.6562ZM34.8664 65.9805C34.8664 65.9805 30.6883 69.0734 37.0719 69.7344C45.3273 70.5867 51.8453 70.6563 63.1297 68.4844C63.1297 68.4844 64.6867 70.0664 67.1391 70.9305C44.0594 77.6805 18.3531 71.4617 34.8664 65.9805Z" fill="#0074BD"/>
<path d="M54.5328 47.868C59.2398 53.2859 53.2984 58.157 53.2984 58.157C53.2984 58.157 65.2429 51.9922 59.7586 44.2687C54.6344 37.0695 50.7062 33.4937 71.9734 21.1594C71.9734 21.1601 38.5898 29.4953 54.5328 47.868Z" fill="#EA2D2E"/>
<path d="M79.7836 84.5539C79.7836 84.5539 82.5406 86.8273 76.7461 88.5844C65.7289 91.9219 30.882 92.9281 21.2039 88.718C17.7266 87.2039 24.25 85.1047 26.3024 84.6617C28.4422 84.1984 29.6641 84.2828 29.6641 84.2828C25.7945 81.5586 4.65392 89.6344 18.9274 91.9508C57.85 98.2601 89.8781 89.1094 79.7836 84.5539ZM38.9938 54.9172C38.9938 54.9172 21.2703 59.1273 32.718 60.6578C37.5524 61.3047 47.1852 61.1562 56.1641 60.4031C63.5 59.7867 70.8617 58.4703 70.8617 58.4703C70.8617 58.4703 68.2774 59.5789 66.4055 60.8555C48.4039 65.5906 13.6367 63.3851 23.6469 58.5445C32.1094 54.4515 38.9938 54.9172 38.9938 54.9172ZM70.7883 72.6883C89.086 63.1828 80.625 54.0476 74.7195 55.2781C73.2758 55.5789 72.6281 55.8406 72.6281 55.8406C72.6281 55.8406 73.1656 54.9976 74.1906 54.6351C85.8727 50.5297 94.8555 66.7469 70.4227 73.1703C70.4227 73.1687 70.7031 72.9148 70.7883 72.6883Z" fill="#0074BD"/>
<path d="M59.7586 1.23987C59.7586 1.23987 69.8899 11.3774 50.1469 26.961C34.3141 39.4656 46.5367 46.5938 50.1414 54.7414C40.8984 46.4032 34.1188 39.0617 38.6664 32.2297C45.3445 22.2031 63.8453 17.3399 59.7586 1.23987Z" fill="#EA2D2E"/>
<path d="M40.7922 98.4539C58.3516 99.5766 85.3234 97.8289 85.9617 89.5195C85.9617 89.5195 84.7344 92.6695 71.4484 95.1688C56.4594 97.9906 37.9687 97.6617 27.0055 95.8516C27.0055 95.8523 29.2516 97.7117 40.7922 98.4539Z" fill="#0074BD"/>
</svg>
