<svg width="79" height="36" viewBox="0 0 79 36" fill="none" xmlns="http://www.w3.org/2000/svg">
<g clip-path="url(#clip0_105_23)">
<path d="M59.7924 11.0109L51.4396 0L41.9162 0L55.1627 17.1374L40.5541 36H50.0119L59.8525 23.2055L64.5409 17.1111L59.7924 11.0109Z" fill="#F1AC8F"/>
<path d="M25.4453 0.00439453L34.3443 0.00439453V28.2449H46.6004V36H25.4453V0.00439453Z" fill="#333333"/>
<path d="M9.08062 0.0350952L0 0.0350952L0 35.7483H9.08062V0.0350952Z" fill="#333333"/>
<path d="M18.2716 13.9608H7.46849L4.56409 17.1696L6.2936 19.1509H6.33551L20.993 36H31.7668L15.3058 17.1887L18.2716 13.9608Z" fill="#4B4B4B"/>
<path d="M31.1005 0L20.1003 0L7.46851 13.9607H18.2716L31.1005 0Z" fill="#4B4B4B"/>
<path d="M77.7022 0.0350952L68.4344 0.0350952L59.8315 10.9947L64.5409 17.1462L77.7022 0.0350952Z" fill="#333333"/>
<path d="M79.0001 35.9722L64.5409 17.0833L59.8525 23.1776L69.742 35.9722H79.0001Z" fill="#333333"/>
</g>
<defs>
<clipPath id="clip0_105_23">
<rect width="79" height="36" fill="white"/>
</clipPath>
</defs>
</svg>
